<?xml version="1.0" standalone="no"?><!DOCTYPE svg PUBLIC "-//W3C//DTD SVG 1.1//EN" "http://www.w3.org/Graphics/SVG/1.1/DTD/svg11.dtd"><svg t="1564975711939" class="icon" viewBox="0 0 1024 1024" version="1.1" xmlns="http://www.w3.org/2000/svg" p-id="2000" xmlns:xlink="http://www.w3.org/1999/xlink" width="200" height="200"><defs><style type="text/css"></style></defs><path d="M955.59812 922.822646 704.08276 671.306262c58.259892-65.085344 93.983511-150.754492 93.983511-244.978481 0-203.166189-164.697039-367.863229-367.863229-367.863229-203.165166 0-367.863229 164.696016-367.863229 367.863229 0 203.164143 164.698063 367.863229 367.863229 367.863229 94.223988 0 179.893136-35.727713 244.978481-93.984534l251.516384 251.518431c3.974521 3.974521 9.212826 5.961782 14.45113 5.961782s10.477632-1.986237 14.45113-5.961782C963.54614 943.776887 963.54614 930.770665 955.59812 922.822646zM675.074076 642.296555c-9.032724 10.228969-18.675338 19.87056-28.904307 28.90226-57.672514 50.928926-133.159766 82.119299-215.96775 82.119299-180.302459 0-326.989309-146.68685-326.989309-326.989309S249.900583 99.339496 430.203042 99.339496c180.301436 0 326.989309 146.68685 326.989309 326.989309C757.191328 509.136789 726.000955 584.624041 675.074076 642.296555z" p-id="2001" fill="#707070"></path></svg>